<?xml version="1.0" encoding="UTF-8" standalone="no"?>
<!DOCTYPE svg PUBLIC "-//W3C//DTD SVG 1.1//EN"
 "http://www.w3.org/Graphics/SVG/1.1/DTD/svg11.dtd">
<!-- Generated by graphviz version 14.1.2 (20260124.0452)
 -->
<!-- Title: G Pages: 1 -->
<svg width="197pt" height="299pt"
 viewBox="0.00 0.00 197.00 299.00" xmlns="http://www.w3.org/2000/svg" xmlns:xlink="http://www.w3.org/1999/xlink">
<g id="graph0" class="graph" transform="scale(1 1) rotate(0) translate(12.96 286.08)">
<title>G</title>
<polygon fill="white" stroke="none" points="-12.96,12.96 -12.96,-286.08 184.38,-286.08 184.38,12.96 -12.96,12.96"/>
<!-- S1&#45;&gt;S2 -->
<g id="edge1" class="edge">
<title>S1&#45;&gt;S2</title>
<path fill="none" stroke="black" d="M85.71,-236.63C85.71,-226.68 85.71,-214.03 85.71,-202.95"/>
<polygon fill="black" stroke="black" points="88.16,-203 85.71,-196 83.26,-203 88.16,-203"/>
</g>
<!-- S2&#45;&gt;S3 -->
<g id="edge2" class="edge">
<title>S2&#45;&gt;S3</title>
<path fill="none" stroke="black" d="M85.71,-157.6C85.71,-147.65 85.71,-135 85.71,-123.92"/>
<polygon fill="black" stroke="black" points="88.16,-123.97 85.71,-116.97 83.26,-123.97 88.16,-123.97"/>
</g>
<!-- S3&#45;&gt;S4 -->
<g id="edge3" class="edge">
<title>S3&#45;&gt;S4</title>
<path fill="none" stroke="black" d="M85.71,-78.57C85.71,-68.62 85.71,-55.97 85.71,-44.89"/>
<polygon fill="black" stroke="black" points="88.16,-44.94 85.71,-37.94 83.26,-44.94 88.16,-44.94"/>
</g>
<!-- S1 -->
<g id="node1" class="node">
<title>S1</title>
<polygon fill="white" stroke="black" stroke-width="1.1" points="171.42,-273.12 0,-273.12 0,-237.09 171.42,-237.09 171.42,-273.12"/>
<text xml:space="preserve" text-anchor="middle" x="85.71" y="-252.13" font-family="PingFang SC" font-size="13.00">S1 构建用户行为序列特征</text>
</g>
<!-- S2 -->
<g id="node2" class="node">
<title>S2</title>
<polygon fill="white" stroke="black" stroke-width="1.1" points="166.17,-194.09 5.25,-194.09 5.25,-158.06 166.17,-158.06 166.17,-194.09"/>
<text xml:space="preserve" text-anchor="middle" x="85.71" y="-173.1" font-family="PingFang SC" font-size="13.00">S2 构建实时上下文特征</text>
</g>
<!-- S3 -->
<g id="node3" class="node">
<title>S3</title>
<polygon fill="white" stroke="black" stroke-width="1.1" points="166.17,-115.06 5.25,-115.06 5.25,-79.03 166.17,-79.03 166.17,-115.06"/>
<text xml:space="preserve" text-anchor="middle" x="85.71" y="-94.07" font-family="PingFang SC" font-size="13.00">S3 生成并应用融合权重</text>
</g>
<!-- S4 -->
<g id="node4" class="node">
<title>S4</title>
<polygon fill="white" stroke="black" stroke-width="1.1" points="147.05,-36.03 24.38,-36.03 24.38,0 147.05,0 147.05,-36.03"/>
<text xml:space="preserve" text-anchor="middle" x="85.71" y="-15.04" font-family="PingFang SC" font-size="13.00">S4 生成推荐结果</text>
</g>
</g>
</svg>
